[img]http://a.imageshack.us/img130/4980/bowwowhood2.png[/img]

[img]http://a.imageshack.us/img197/2026/bowwowhood.png[/img]

[code]General
Complete name                    : Bow Wow ft Sean Kingstron - Put That On My Hood [KingPinVideos].mpg
Format                           : MPEG-PS
File size                        : 68.6 MiB
Duration                         : 3mn 17s
Overall bit rate                 : 2 920 Kbps
Writing library                  : encoded by TMPGEnc 4.0 XPress Version. 4.7.4.299

Video
ID                               : 224 (0xE0)
Format                           : MPEG Video
Format version                   : Version 1
Format settings, BVOP            : Yes
Format settings, Matrix          : Default
Duration                         : 3mn 17s
Bit rate mode                    : Constant
Bit rate                         : 2 612 Kbps
Nominal bit rate                 : 2 700 Kbps
Width                            : 384 pixels
Height                           : 208 pixels
Display aspect ratio             : 16:9
Frame rate                       : 29.970 fps
Resolution                       : 8 bits
Scan type                        : Progressive
Bits/(Pixel*Frame)               : 1.091
Stream size                      : 61.4 MiB (89%)
Writing library                  : TMPGEnc XPress 4.7.4.299

Audio
ID                               : 192 (0xC0)
Format                           : MPEG Audio
Format version                   : Version 1
Format profile                   : Layer 2
Duration                         : 3mn 17s
Bit rate mode                    : Constant
Bit rate                         : 192 Kbps
Channel(s)                       : 2 channels
Sampling rate                    : 48.0 KHz
Stream size                      : 4.51 MiB (7%)

[/code]